<?xml version="1.0" encoding="utf-8"?>
<!-- Generator: Adobe Illustrator 25.3.1, SVG Export Plug-In . SVG Version: 6.00 Build 0)  -->
<svg version="1.1" id="Layer_1" xmlns="http://www.w3.org/2000/svg" xmlns:xlink="http://www.w3.org/1999/xlink" x="0px" y="0px"
	 viewBox="0 0 1680.75 180.86" style="enable-background:new 0 0 1680.75 180.86;" xml:space="preserve">
<style type="text/css">
	.st0{fill:#FFC400;}
	.st1{fill:#1C4094;}
	.st2{fill:#0D5CBA;}
	.st3{fill:none;}
</style>
<g>
	<path class="st0" d="M1680.75,3.44v96.77c-14.67,1.98-24.56,2.65-27.43,2.82c-0.66-0.02-1-0.04-1-0.04
		c-71.36,4.8-143.5,2.27-214.03-7.59c-17.9-2.51-35.74-5.48-53.52-8.8c-32.37-6.03-64.57-13.18-96.69-20.69l-0.15-0.13
		c19.86,4.67,40.68,5.72,61.13,5.83c70.94,0.41,142.05-3.34,210.59-21.7C1601.72,38.64,1647.5,20.11,1680.75,3.44z"/>
	<path class="st1" d="M772.81,29c-75.66,19.73-148,49.7-220.09,77.37c-29.77,11.43-60.22,22.6-91.19,32.56
		c-80.29,25.85-164.19,43.65-249.58,37.29C123.42,169.62,39.54,108.51,0,41.07V0h0.33c55.7,27.45,118.66,56.2,184.5,68.51
		C184.83,68.51,367.11,108.17,772.81,29z"/>
	<path class="st2" d="M1680.75,100.21v80.65H0V41.07c39.54,67.44,123.42,128.55,211.95,135.15c85.39,6.36,169.29-11.44,249.58-37.29
		c30.97-9.96,61.42-21.13,91.19-32.56C624.81,78.7,697.15,48.73,772.81,29c36.64-9.55,74.06-16.7,112.61-20.02
		c136.87-11.8,269.03,25.67,402.66,56.93c32.12,7.51,64.32,14.66,96.69,20.69c17.78,3.32,35.62,6.29,53.52,8.8
		c70.53,9.86,142.67,12.39,214.03,7.59c0,0,0.34,0.02,1,0.04C1656.19,102.86,1666.08,102.19,1680.75,100.21z"/>
	<path class="st3" d="M1680.75,0v100.21c-14.67,1.98-24.56,2.65-27.43,2.82c-0.66-0.02-1-0.04-1-0.04
		c-71.36,4.8-143.5,2.27-214.03-7.59c-17.9-2.51-35.74-5.48-53.52-8.8c-32.37-6.03-64.57-13.18-96.69-20.69
		C1154.45,34.65,1022.29-2.82,885.42,8.98C846.87,12.3,809.45,19.45,772.81,29c-75.66,19.73-148,49.7-220.09,77.37
		c-29.77,11.43-60.22,22.6-91.19,32.56c-80.29,25.85-164.19,43.65-249.58,37.29C123.42,169.62,39.54,108.51,0,41.07V0H1680.75z"/>
</g>
</svg>
