<?xml version="1.0" encoding="utf-8"?>
<!-- Generator: Adobe Illustrator 25.3.1, SVG Export Plug-In . SVG Version: 6.00 Build 0)  -->
<svg version="1.1" id="Layer_1" xmlns="http://www.w3.org/2000/svg" xmlns:xlink="http://www.w3.org/1999/xlink" x="0px" y="0px"
	 viewBox="0 0 542.22 169.95" style="enable-background:new 0 0 542.22 169.95;" xml:space="preserve">
<style type="text/css">
	.st0{fill:#7DE3E8;}
	.st1{fill:#FFC400;}
	.st2{fill:#29216B;}
</style>
<g>
	<path class="st0" d="M407.86,107.69c-16.46-10.75-49.56-31.52-67.8-38.84c-17.92-7.19-36.57-11.69-55.59-14.65
		c-31.91-4.97-64.87-5.59-97.24-7.33C124.73,43.51,52.7,33.76,0,0h264.29c16.64,5.84,32.55,13.72,47.21,23.53
		c0.85,0.57,1.68,1.12,2.49,1.66c25.1,16.83,33.94,23.3,54.7,47C368.69,72.19,384.48,90.9,407.86,107.69z"/>
	<path class="st1" d="M542.22,85.32v84.63c-30.93-1.94-61.81-15.35-88.73-31.8c-15.56-9.52-30.53-20.12-45.63-30.46
		c12.1,6.2,25.82,9.81,39.11,11.41c13.71,1.65,30.2,1.33,43.68-1.63c13.03-2.86,24.57-7.32,36.41-14.43
		C533.11,99.4,538.89,92.52,542.22,85.32z"/>
	<path class="st2" d="M542.22,0v85.32c-3.33,7.2-9.11,14.08-15.16,17.72c-11.84,7.11-23.38,11.57-36.41,14.43
		c-13.48,2.96-29.97,3.28-43.68,1.63c-13.29-1.6-27.01-5.21-39.11-11.41c-23.38-16.79-39.17-35.5-39.17-35.5
		c-20.76-23.7-29.6-30.17-54.7-47c-0.81-0.54-1.64-1.09-2.49-1.66C296.84,13.72,280.93,5.84,264.29,0H542.22z"/>
</g>
</svg>
