<?xml version="1.0" encoding="utf-8"?>
<!-- Generator: Adobe Illustrator 25.3.1, SVG Export Plug-In . SVG Version: 6.00 Build 0)  -->
<svg version="1.1" id="Layer_1" xmlns="http://www.w3.org/2000/svg" xmlns:xlink="http://www.w3.org/1999/xlink" x="0px" y="0px"
	 viewBox="0 0 111.65 751.93" style="enable-background:new 0 0 111.65 751.93;" xml:space="preserve">
<style type="text/css">
	.st0{fill:#7DE3E8;}
	.st1{fill:#FFC400;}
	.st2{fill:#29216B;}
</style>
<g>
	<path class="st0" d="M74.43,497.08c-0.08-1-0.17-2-0.26-3.01c-5.42-63.29-21.34-138.86-26.32-210.22
		c-4.62-66.27-1.01-128.52,14.87-184.01C114.95,206.54,134.88,339.53,74.43,497.08z"/>
	<path class="st1" d="M0,751.93v-111c32.42-50,56.83-97.97,74.43-143.85C79.01,553.58,54.74,694.16,0,751.93z"/>
	<path class="st2" d="M74.43,497.08C56.83,542.96,32.42,590.93,0,640.93V0c23.4,30.18,44.94,63.48,62.72,99.84
		c-15.88,55.49-19.49,117.74-14.87,184.01c4.98,71.36,20.9,146.93,26.32,210.22C74.26,495.08,74.35,496.08,74.43,497.08z"/>
</g>
</svg>
