<?xml version="1.0" encoding="utf-8"?>
<!-- Generator: Adobe Illustrator 16.0.0, SVG Export Plug-In . SVG Version: 6.00 Build 0)  -->
<!DOCTYPE svg PUBLIC "-//W3C//DTD SVG 1.1//EN" "http://www.w3.org/Graphics/SVG/1.1/DTD/svg11.dtd">
<svg version="1.1" id="Layer_1" xmlns="http://www.w3.org/2000/svg" xmlns:xlink="http://www.w3.org/1999/xlink" x="0px" y="0px"
	 width="55px" height="55px" viewBox="0 0 55 55" enable-background="new 0 0 55 55" xml:space="preserve">
<g>
	<path fill="#FFFFFF" d="M27.199,0.526c-14.943,0-27.059,12.114-27.059,27.059c0,14.945,12.115,27.06,27.059,27.06
		c14.945,0,27.061-12.115,27.061-27.06C54.26,12.64,42.145,0.526,27.199,0.526z M32.746,27.593h-3.629v12.936h-5.378V27.593h-2.556
		v-4.57h2.556v-2.957c0-2.117,1.009-5.426,5.427-5.426l3.982,0.015v4.437h-2.891c-0.473,0-1.141,0.235-1.141,1.245v2.687h4.1
		L32.746,27.593z"/>
</g>
</svg>
