<?xml version="1.0" encoding="utf-8"?>
<!-- Generator: Adobe Illustrator 16.0.0, SVG Export Plug-In . SVG Version: 6.00 Build 0)  -->
<!DOCTYPE svg PUBLIC "-//W3C//DTD SVG 1.1//EN" "http://www.w3.org/Graphics/SVG/1.1/DTD/svg11.dtd">
<svg version="1.1" id="Layer_1" xmlns="http://www.w3.org/2000/svg" xmlns:xlink="http://www.w3.org/1999/xlink" x="0px" y="0px"
	 width="55px" height="55px" viewBox="0 0 55 55" enable-background="new 0 0 55 55" xml:space="preserve">
<g>
	<path fill="#FFFFFF" d="M27.5,0.44c-14.945,0-27.06,12.114-27.06,27.059c0,14.945,12.114,27.061,27.06,27.061
		c14.945,0,27.058-12.115,27.058-27.061C54.559,12.555,42.445,0.44,27.5,0.44z M20.432,38.581h-5.55V21.907h5.55V38.581z
		 M17.657,19.632h-0.035c-1.862,0-3.067-1.28-3.067-2.882c0-1.635,1.241-2.88,3.14-2.88s3.067,1.245,3.104,2.88
		C20.797,18.352,19.592,19.632,17.657,19.632z M40.445,38.581h-5.549v-8.92c0-2.241-0.803-3.77-2.813-3.77
		c-1.533,0-2.445,1.03-2.848,2.027c-0.146,0.355-0.182,0.854-0.182,1.352v9.313h-5.55c0,0,0.072-15.109,0-16.675h5.55v2.362
		c0.734-1.137,2.055-2.754,5.002-2.754c3.652,0,6.389,2.384,6.389,7.506V38.581z"/>
</g>
</svg>
