<?xml version="1.0" encoding="utf-8"?>
<!-- Generator: Adobe Illustrator 16.0.0, SVG Export Plug-In . SVG Version: 6.00 Build 0)  -->
<!DOCTYPE svg PUBLIC "-//W3C//DTD SVG 1.1//EN" "http://www.w3.org/Graphics/SVG/1.1/DTD/svg11.dtd">
<svg version="1.1" id="Layer_1" xmlns="http://www.w3.org/2000/svg" xmlns:xlink="http://www.w3.org/1999/xlink" x="0px" y="0px"
	 width="217px" height="40.81px" viewBox="0 0 217 40.81" enable-background="new 0 0 217 40.81" xml:space="preserve">
<g>
	<path fill="#ffffff" d="M76.495,7.722c-0.934,0-1.737-0.318-2.387-0.947c-0.652-0.631-0.986-1.413-0.986-2.32
		c0-0.902,0.33-1.69,0.979-2.34c0.651-0.648,1.456-0.979,2.394-0.979c0.904,0,1.687,0.332,2.32,0.987
		c0.628,0.649,0.947,1.434,0.947,2.331c0,0.903-0.321,1.683-0.954,2.315C78.184,7.393,77.385,7.722,76.495,7.722"/>
	<path fill="#ffffff" d="M135.465,7.722c-0.934,0-1.735-0.318-2.384-0.947c-0.656-0.631-0.989-1.413-0.989-2.32
		c0-0.902,0.329-1.69,0.979-2.34c0.651-0.648,1.456-0.979,2.394-0.979c0.904,0,1.687,0.332,2.32,0.987
		c0.629,0.651,0.945,1.434,0.945,2.331c0,0.902-0.321,1.681-0.954,2.315C137.145,7.401,136.365,7.722,135.465,7.722"/>
	<path fill="#ffffff" d="M23.197,22.189c-0.542-0.751-1.018-1.405-1.45-1.96c-0.531-0.663-0.809-1.305-0.809-1.868
		c0-0.854,0.277-1.617,0.819-2.28c0.432-0.544,0.931-1.141,1.472-1.771c0.5-0.608,0.964-1.315,1.373-2.136
		c0.387-0.764,0.575-1.78,0.575-3.021c0-1.205-0.231-2.323-0.708-3.308c-0.487-0.986-1.129-1.871-1.937-2.601
		c-0.985-0.886-2.169-1.558-3.563-1.968c-0.819-0.255-1.727-0.384-2.734-0.384H4.152C2.292,0.892,1,2.435,1,4.283v24.016
		c0,1.648,0.226,3.198,0.867,4.591c0.642,1.395,1.496,2.646,2.614,3.699c1.139,1.039,2.419,1.858,3.892,2.455
		c1.46,0.577,2.996,0.874,4.623,0.874c1.638,0,3.203-0.286,4.653-0.852c1.471-0.587,2.785-1.394,3.902-2.415
		c1.118-1.038,2.012-2.268,2.665-3.639c0.643-1.373,0.962-2.921,0.962-4.604c0-1.396-0.198-2.601-0.598-3.564
		C24.16,23.817,23.695,22.93,23.197,22.189 M16.059,21.149c0.42,0.764,0.886,1.459,1.372,2.104c0.543,0.665,1.029,1.327,1.472,2.002
		c0.532,0.772,0.796,1.759,0.796,2.935c0,0.927-0.188,1.803-0.541,2.587c-0.377,0.81-0.886,1.505-1.483,2.06
		c-0.609,0.573-1.327,1.041-2.158,1.371c-0.841,0.323-1.704,0.489-2.578,0.489c-0.863,0-1.705-0.156-2.557-0.489
		c-0.829-0.33-1.561-0.786-2.169-1.371c-0.621-0.566-1.336-1.262-1.713-2.06c-0.365-0.796-0.763-1.671-0.763-2.587V6.575h10.632
		c0.853,0,1.627,0.088,2.292,0.663c0.685,0.598,1.039,1.256,1.039,2.175c0,0.752-0.287,1.408-0.852,2.05
		c-0.42,0.487-0.895,1.026-1.417,1.667c-0.486,0.631-0.952,1.348-1.359,2.167c-0.399,0.785-0.588,1.798-0.588,3.016
		C15.483,19.495,15.672,20.44,16.059,21.149"/>
	<path fill="#ffffff" d="M33.011,39.725c-0.881,0-1.582-0.328-1.957-0.681c-0.394-0.36-0.692-1.134-0.692-2.074V21.215
		c0-6.461,3.493-9.876,9.886-9.876c0.291,0,0.932,0.036,1.812,0.11c0.9,0.094,1.603,0.331,1.932,0.748
		c0.301,0.387,0.578,0.984,0.578,1.827v0.528c0,0.578-0.161,1.396-0.68,1.832c-0.27,0.222-0.689,0.332-1.181,0.332
		c-0.219,0-0.501-0.021-0.797-0.069l-0.3-0.002c-0.121,0-0.245-0.007-0.369-0.017c-0.282-0.02-0.505-0.038-0.657-0.058
		c-0.009,0-0.205-0.018-0.209-0.018c-1.65,0-2.78,0.351-3.391,1.044c-0.436,0.496-0.94,1.563-0.94,3.83V36.97
		c0,0.926-0.184,1.693-0.547,2.057c-0.361,0.363-0.977,0.698-1.904,0.698H33.011z"/>
	<path fill="#ffffff" d="M56.386,11.344c-2.303,0-4.289,0.176-5.882,0.542c-0.785,0.177-1.328,0.432-1.638,0.774
		c-0.343,0.377-0.509,0.94-0.509,1.738v0.419c0,0.874,0.202,1.484,0.645,1.815c0.265,0.21,0.621,0.32,1.063,0.32
		c0.243,0,0.526-0.032,0.847-0.11c1.67-0.364,3.583-0.554,5.653-0.554c2.168,0,3.741,0.354,4.736,1.008
		c0.93,0.631,1.263,1.605,1.263,3.077v2.303h-5.315c-3.83,0-6.717,0.715-8.588,2.02c-1.948,1.361-2.921,3.576-2.921,6.53
		c0,2.866,0.951,5.076,2.844,6.549c1.837,1.406,4.46,2.132,7.813,2.132c3.996,0,6.994-0.714,8.886-2.121
		c1.948-1.46,2.965-3.801,2.965-6.942v-10.47C68.248,16.257,66.157,11.344,56.386,11.344 M62.564,30.678
		c0,1.626-0.333,2.721-1.229,3.341c-0.665,0.466-2.032,1.008-5.031,1.008c-4.648,0-5.177-2.149-5.177-3.763
		c0-1.883,0.754-2.568,1.306-2.933c0.655-0.422,2.038-0.92,4.861-0.92h5.271V30.678z"/>
	<path fill="#ffffff" d="M76.177,39.725c-0.93,0-1.443-0.333-1.802-0.698c-0.363-0.363-0.445-1.131-0.445-2.057V14.289
		c0-0.876,0.075-1.269,0.422-1.647c0.365-0.394,0.885-0.384,1.824-0.384h0.582c0.877,0,1.704-0.012,2.081,0.363
		c0.374,0.376,0.773,0.79,0.773,1.668V36.97c0,0.939-0.4,1.714-0.794,2.074c-0.378,0.353-1.179,0.681-2.059,0.681H76.177z"/>
	<path fill="#ffffff" d="M105.044,39.725c-0.928,0-1.669-0.335-2.034-0.698c-0.359-0.361-0.666-1.131-0.666-2.057V21.954
		c0-1.992-0.303-3.401-1.18-4.188c-0.615-0.554-1.904-1.215-4.86-1.215c-2.341,0-4.024,0.43-4.949,1.243
		C90.448,18.6,90.032,20,90.032,21.954V36.97c0,0.929-0.177,1.696-0.54,2.057c-0.361,0.363-0.968,0.698-1.896,0.698h-0.582
		c-0.882,0-1.589-0.328-1.96-0.681c-0.397-0.36-0.706-1.137-0.706-2.074V21.954c0-6.941,4.196-10.614,11.903-10.614
		c3.942,0,6.934,0.893,8.846,2.65c1.927,1.776,2.93,4.455,2.93,7.964V36.97c0,0.929-0.133,1.696-0.495,2.057
		c-0.362,0.363-0.926,0.698-1.855,0.698H105.044z"/>
	<path fill="#ffffff" d="M116.241,39.725c-0.882,0-1.522-0.328-1.898-0.681c-0.394-0.36-0.634-1.135-0.634-2.074V21.215
		c0-6.461,3.433-9.876,9.826-9.876c0.292,0,0.902,0.036,1.781,0.11c0.9,0.094,1.649,0.331,1.978,0.748
		c0.301,0.386,0.623,0.983,0.623,1.827v0.528c0,0.576-0.221,1.395-0.741,1.832c-0.266,0.222-0.716,0.332-1.209,0.332
		c-0.222,0-0.518-0.021-0.813-0.069l-0.304-0.002c-0.123,0-0.25-0.007-0.374-0.017c-0.282-0.02-0.507-0.038-0.66-0.058
		c-0.008,0-0.205-0.018-0.212-0.018c-1.646,0-2.721,0.351-3.329,1.044c-0.438,0.496-0.883,1.563-0.883,3.83V36.97
		c0,0.929-0.245,1.696-0.604,2.055c-0.36,0.365-1.04,0.7-1.966,0.7H116.241z"/>
	<path fill="#ffffff" d="M135.148,39.725c-0.931,0-1.569-0.333-1.926-0.698c-0.363-0.361-0.571-1.131-0.571-2.057V14.289
		c0-0.876,0.2-1.269,0.548-1.647c0.363-0.394,1.009-0.384,1.949-0.384h0.581c0.876,0,1.579-0.012,1.957,0.363
		c0.372,0.376,0.648,0.792,0.648,1.668V36.97c0,0.938-0.276,1.712-0.671,2.074c-0.376,0.353-1.054,0.681-1.935,0.681H135.148z"/>
	<path fill="#ffffff" d="M167.098,1.41c-0.376-0.345-0.997-0.518-1.87-0.518h-0.576c-0.94,0-1.636,0.173-2,0.539
		c-0.365,0.365-0.636,0.992-0.636,1.911v10.304l-0.958-0.698c-1.625-1.063-3.725-1.604-6.392-1.604
		c-7.639,0-11.593,4.105-11.593,11.886v4.912c0,3.885,1.012,6.862,3.058,8.832c2.026,1.949,5.151,2.943,9.246,2.943
		c8.055,0,12.319-4.071,12.319-11.775v-24.8C167.696,2.415,167.495,1.774,167.098,1.41 M162.016,28.086
		c0,2.437-0.394,4.164-1.398,5.138c-0.985,0.972-2.793,1.48-5.327,1.48c-2.566,0-4.266-0.509-5.229-1.48
		c-0.984-0.974-1.308-2.701-1.308-5.138v-4.913c0-2.423,0.351-4.16,1.358-5.146c0.985-0.962,2.771-1.482,5.306-1.482
		s4.25,0.521,5.234,1.482c1.006,0.985,1.363,2.723,1.363,5.146V28.086z"/>
	<path fill="#ffffff" d="M193.215,14.244c-1.981-1.927-5.035-2.899-8.731-2.899c-7.782,0-12.05,4.105-12.05,11.886v4.912
		c0,4.073,1.226,7.095,3.34,8.977c2.092,1.86,5.449,2.799,9.854,2.799c2.723,0,5.289-0.344,7.491-1.041
		c0.884-0.253,1.348-0.542,1.649-0.929c0.307-0.388,0.396-0.919,0.396-1.658v-0.479c0-0.896-0.122-1.515-0.542-1.879
		c-0.28-0.224-0.595-0.355-1.025-0.355c-0.276,0-0.557,0.055-0.923,0.154c-2.289,0.643-4.625,0.974-6.971,0.974
		c-2.713,0-4.769-0.475-5.898-1.393c-1.106-0.898-1.689-2.426-1.689-4.594v-1.307h15.31c0.907,0,1.505,0.073,1.893-0.271
		c0.399-0.333,0.642-0.795,0.73-1.635c0.111-0.706,0.166-1.646,0.166-2.919C196.214,18.933,195.206,16.169,193.215,14.244
		 M191.376,22.677h-13.261v-0.62c0-3.852,2.313-5.712,6.63-5.712c4.304,0,6.631,1.86,6.631,5.712V22.677z"/>
	<path fill="#ffffff" d="M204.357,39.725c-0.885,0-1.539-0.328-1.914-0.681c-0.396-0.362-0.652-1.137-0.652-2.074V21.215
		c0-6.461,3.451-9.876,9.844-9.876c0.292,0,0.911,0.036,1.789,0.11c0.902,0.094,1.638,0.331,1.968,0.748
		c0.3,0.387,0.608,0.984,0.608,1.827v0.528c0,0.578-0.202,1.397-0.722,1.831c-0.269,0.223-0.709,0.333-1.203,0.333
		c-0.221,0-0.511-0.021-0.806-0.069l-0.308-0.002c-0.122,0-0.251-0.007-0.371-0.017c-0.281-0.02-0.507-0.038-0.657-0.058
		c-0.005,0-0.207-0.018-0.211-0.018c-1.649,0-2.737,0.351-3.346,1.044c-0.437,0.498-0.9,1.568-0.9,3.83V36.97
		c0,0.929-0.228,1.696-0.589,2.057c-0.36,0.363-1.021,0.698-1.95,0.698H204.357z"/>
</g>
</svg>
