<?xml version="1.0" encoding="utf-8"?>
<!-- Generator: Adobe Illustrator 16.0.0, SVG Export Plug-In . SVG Version: 6.00 Build 0)  -->
<!DOCTYPE svg PUBLIC "-//W3C//DTD SVG 1.1//EN" "http://www.w3.org/Graphics/SVG/1.1/DTD/svg11.dtd">
<svg version="1.1" id="Layer_1" xmlns="http://www.w3.org/2000/svg" xmlns:xlink="http://www.w3.org/1999/xlink" x="0px" y="0px"
	 width="55px" height="55px" viewBox="0 0 55 55" enable-background="new 0 0 55 55" xml:space="preserve">
<g>
	<path fill="#FFFFFF" d="M27.5,0.44c-14.944,0-27.06,12.114-27.06,27.059c0,14.945,12.115,27.061,27.06,27.061
		s27.06-12.115,27.06-27.061C54.56,12.555,42.444,0.44,27.5,0.44z M37.795,22.219c0.011,0.229,0.015,0.457,0.015,0.688
		c0,7.021-5.342,15.114-15.113,15.114c-2.998,0-5.79-0.881-8.142-2.387c0.415,0.049,0.839,0.074,1.266,0.074
		c2.489,0,4.78-0.85,6.599-2.273c-2.324-0.045-4.286-1.582-4.963-3.689c0.324,0.061,0.655,0.094,0.998,0.094
		c0.485,0,0.953-0.066,1.4-0.186c-2.43-0.488-4.261-2.637-4.261-5.209v-0.067c0.716,0.396,1.536,0.636,2.405,0.663
		c-1.424-0.952-2.361-2.577-2.361-4.42c0-0.975,0.261-1.887,0.719-2.67c2.619,3.213,6.534,5.329,10.949,5.55
		c-0.091-0.388-0.137-0.792-0.137-1.209c0-2.935,2.379-5.313,5.312-5.313c1.528,0,2.908,0.646,3.877,1.679
		c1.212-0.238,2.349-0.682,3.374-1.29c-0.396,1.24-1.237,2.281-2.337,2.939c1.075-0.129,2.099-0.413,3.051-0.837
		C39.733,20.535,38.831,21.471,37.795,22.219z"/>
</g>
</svg>
