<?xml version="1.0" encoding="utf-8"?>
<!-- Generator: Adobe Illustrator 16.0.0, SVG Export Plug-In . SVG Version: 6.00 Build 0)  -->
<!DOCTYPE svg PUBLIC "-//W3C//DTD SVG 1.1//EN" "http://www.w3.org/Graphics/SVG/1.1/DTD/svg11.dtd">
<svg version="1.1" id="Layer_1" xmlns="http://www.w3.org/2000/svg" xmlns:xlink="http://www.w3.org/1999/xlink" x="0px" y="0px"
	 width="55px" height="55px" viewBox="0 0 55 55" enable-background="new 0 0 55 55" xml:space="preserve">
<g>
	<path fill="#FFFFFF" d="M24.438,31.409c3.053-1.527,5.801-3.055,8.243-4.275c-2.9-1.527-5.19-2.901-8.243-4.275V31.409z"/>
	<path fill="#FFFFFF" d="M27.5,0.44c-14.944,0-27.06,12.114-27.06,27.059c0,14.945,12.115,27.061,27.06,27.061
		s27.06-12.115,27.06-27.061C54.56,12.555,42.444,0.44,27.5,0.44z M41.078,36.599c-0.61,0.611-1.373,0.916-2.138,1.068
		c-8.854,0.764-20.761,0.457-23.051,0c-0.916-0.152-1.68-0.457-2.137-1.068c-0.307-0.305-0.611-0.916-0.916-1.832
		c-0.611-1.984-1.374-14.351,1.067-16.487c0.611-0.61,1.222-0.916,1.985-1.068c2.748-0.458,20.304-0.458,23.051,0
		c1.069,0.152,1.985,0.61,2.443,1.373C43.216,21.485,43.369,34.31,41.078,36.599z"/>
</g>
</svg>
